# xmcd
#
# Track frame offsets:
#	150
#	14605
#	27540
#	43672
#	55102
#	74450
#	84832
#	100625
#	114835
#	125677
#	141832
#
# Disc length: 2097 seconds
#
# Revision: 1
# Processed by: cddbd v1.5.2PL0 Copyright (c) Steve Scherf et al.
# Submitted via: audiograbber 1.83.01
#
DISCID=90082f0b
DTITLE=The Earps - Here Come the Earps
DYEAR=2007
DGENRE=Rockabilly
TTITLE0=Devil's Bed
TTITLE1=Rooster Run
TTITLE2=I Love Las Vegas
TTITLE3=Phone Aint Ringin'
TTITLE4=Wrong Hill
TTITLE5=Christ on a Crutch
TTITLE6=Drag Queen
TTITLE7=Peacock General
TTITLE8=Backyard
TTITLE9=Born in a Barn
TTITLE10=Hoggin!
EXTD=
EXTT0=
EXTT1=
EXTT2=
EXTT3=
EXTT4=
EXTT5=
EXTT6=
EXTT7=
EXTT8=
EXTT9=
EXTT10=
PLAYORDER=
